<mxfile host="app.diagrams.net" modified="2023-11-26T00:07:25.661Z" agent="Mozilla/5.0 (Windows NT 10.0; Win64; x64) AppleWebKit/537.36 (KHTML, like Gecko) Chrome/116.0.0.0 Safari/537.36 OPR/102.0.0.0" etag="QzY5sOXqB-0U1rD1Bc7X" version="22.1.4" type="device">
  <diagram name="Page-1" id="vCRdNv330IUlHE7HMd33">
    <mxGraphModel dx="795" dy="478" grid="1" gridSize="10" guides="1" tooltips="1" connect="1" arrows="1" fold="1" page="1" pageScale="1" pageWidth="850" pageHeight="1100" math="0" shadow="0">
      <root>
        <mxCell id="0" />
        <mxCell id="1" parent="0" />
        <mxCell id="R0hRucNRT6cpFYBGlfZp-1" value="Assign Task &lt;br&gt;to Agent" style="rounded=1;whiteSpace=wrap;html=1;fillColor=#d5e8d4;strokeColor=#82b366;" parent="1" vertex="1">
          <mxGeometry x="352" y="110" width="90" height="40" as="geometry" />
        </mxCell>
        <mxCell id="R0hRucNRT6cpFYBGlfZp-2" value="Add Tasks to Task Set" style="rounded=1;whiteSpace=wrap;html=1;fillColor=#d5e8d4;strokeColor=#82b366;" parent="1" vertex="1">
          <mxGeometry x="120" y="120" width="130" height="40" as="geometry" />
        </mxCell>
        <mxCell id="R0hRucNRT6cpFYBGlfZp-3" value="From&lt;br&gt;Select Agent" style="text;html=1;strokeColor=#000000;fillColor=#FFFFFF;align=center;verticalAlign=middle;whiteSpace=wrap;rounded=0;fontColor=#333333;" parent="1" vertex="1">
          <mxGeometry y="120" width="80" height="40" as="geometry" />
        </mxCell>
        <mxCell id="R0hRucNRT6cpFYBGlfZp-4" value="" style="endArrow=classic;html=1;rounded=0;exitX=1;exitY=0.5;exitDx=0;exitDy=0;entryX=0;entryY=0.5;entryDx=0;entryDy=0;" parent="1" source="R0hRucNRT6cpFYBGlfZp-3" target="R0hRucNRT6cpFYBGlfZp-2" edge="1">
          <mxGeometry width="50" height="50" relative="1" as="geometry">
            <mxPoint x="230" y="180" as="sourcePoint" />
            <mxPoint x="280" y="130" as="targetPoint" />
          </mxGeometry>
        </mxCell>
        <mxCell id="R0hRucNRT6cpFYBGlfZp-5" value="" style="endArrow=classic;html=1;rounded=0;exitX=1;exitY=0.25;exitDx=0;exitDy=0;entryX=0;entryY=0.5;entryDx=0;entryDy=0;" parent="1" source="R0hRucNRT6cpFYBGlfZp-2" target="R0hRucNRT6cpFYBGlfZp-1" edge="1">
          <mxGeometry width="50" height="50" relative="1" as="geometry">
            <mxPoint x="230" y="180" as="sourcePoint" />
            <mxPoint x="280" y="130" as="targetPoint" />
          </mxGeometry>
        </mxCell>
        <mxCell id="R0hRucNRT6cpFYBGlfZp-23" value="Task&lt;br&gt;Available" style="edgeLabel;html=1;align=center;verticalAlign=middle;resizable=0;points=[];" parent="R0hRucNRT6cpFYBGlfZp-5" vertex="1" connectable="0">
          <mxGeometry x="-0.32" y="1" relative="1" as="geometry">
            <mxPoint x="15" y="1" as="offset" />
          </mxGeometry>
        </mxCell>
        <mxCell id="R0hRucNRT6cpFYBGlfZp-12" value="Create Task" style="rounded=1;whiteSpace=wrap;html=1;fillColor=#d5e8d4;strokeColor=#82b366;" parent="1" vertex="1">
          <mxGeometry x="120" y="220" width="130" height="40" as="geometry" />
        </mxCell>
        <mxCell id="R0hRucNRT6cpFYBGlfZp-13" value="" style="endArrow=classic;html=1;rounded=0;entryX=0.75;entryY=1;entryDx=0;entryDy=0;exitX=0.75;exitY=0;exitDx=0;exitDy=0;" parent="1" source="R0hRucNRT6cpFYBGlfZp-12" target="R0hRucNRT6cpFYBGlfZp-2" edge="1">
          <mxGeometry width="50" height="50" relative="1" as="geometry">
            <mxPoint x="170" y="180" as="sourcePoint" />
            <mxPoint x="160" y="180" as="targetPoint" />
          </mxGeometry>
        </mxCell>
        <mxCell id="R0hRucNRT6cpFYBGlfZp-24" value="Task&lt;br&gt;Created" style="edgeLabel;html=1;align=center;verticalAlign=middle;resizable=0;points=[];" parent="R0hRucNRT6cpFYBGlfZp-13" vertex="1" connectable="0">
          <mxGeometry x="-0.0033" y="-1" relative="1" as="geometry">
            <mxPoint x="-2" y="3" as="offset" />
          </mxGeometry>
        </mxCell>
        <mxCell id="R0hRucNRT6cpFYBGlfZp-14" value="" style="endArrow=classic;html=1;rounded=0;exitX=0.25;exitY=1;exitDx=0;exitDy=0;entryX=0.25;entryY=0;entryDx=0;entryDy=0;" parent="1" source="R0hRucNRT6cpFYBGlfZp-2" target="R0hRucNRT6cpFYBGlfZp-12" edge="1">
          <mxGeometry width="50" height="50" relative="1" as="geometry">
            <mxPoint x="210" y="170" as="sourcePoint" />
            <mxPoint x="170" y="180" as="targetPoint" />
          </mxGeometry>
        </mxCell>
        <mxCell id="R0hRucNRT6cpFYBGlfZp-22" value="New Task&lt;br&gt;Needed" style="edgeLabel;html=1;align=center;verticalAlign=middle;resizable=0;points=[];" parent="R0hRucNRT6cpFYBGlfZp-14" vertex="1" connectable="0">
          <mxGeometry x="0.01" relative="1" as="geometry">
            <mxPoint y="-5" as="offset" />
          </mxGeometry>
        </mxCell>
        <mxCell id="R0hRucNRT6cpFYBGlfZp-16" value="" style="endArrow=classic;html=1;rounded=0;exitX=1;exitY=0.5;exitDx=0;exitDy=0;entryX=0;entryY=0.5;entryDx=0;entryDy=0;" parent="1" source="R0hRucNRT6cpFYBGlfZp-1" target="R0hRucNRT6cpFYBGlfZp-17" edge="1">
          <mxGeometry width="50" height="50" relative="1" as="geometry">
            <mxPoint x="311" y="180" as="sourcePoint" />
            <mxPoint x="431" y="140" as="targetPoint" />
          </mxGeometry>
        </mxCell>
        <mxCell id="R0hRucNRT6cpFYBGlfZp-17" value="To&lt;br&gt;Action Planning" style="text;html=1;strokeColor=#000000;fillColor=#FFFFFF;align=center;verticalAlign=middle;whiteSpace=wrap;rounded=0;fontColor=#333333;" parent="1" vertex="1">
          <mxGeometry x="481" y="110" width="90" height="40" as="geometry" />
        </mxCell>
        <mxCell id="R0hRucNRT6cpFYBGlfZp-25" value="" style="endArrow=classic;html=1;rounded=0;exitX=1;exitY=0.5;exitDx=0;exitDy=0;entryX=0.5;entryY=1;entryDx=0;entryDy=0;" parent="1" source="R0hRucNRT6cpFYBGlfZp-12" target="R0hRucNRT6cpFYBGlfZp-17" edge="1">
          <mxGeometry width="50" height="50" relative="1" as="geometry">
            <mxPoint x="310" y="190" as="sourcePoint" />
            <mxPoint x="360" y="140" as="targetPoint" />
            <Array as="points">
              <mxPoint x="526" y="240" />
            </Array>
          </mxGeometry>
        </mxCell>
        <mxCell id="R0hRucNRT6cpFYBGlfZp-26" value="&amp;nbsp;No Tasks Available&amp;nbsp;" style="edgeLabel;html=1;align=center;verticalAlign=middle;resizable=0;points=[];" parent="R0hRucNRT6cpFYBGlfZp-25" vertex="1" connectable="0">
          <mxGeometry x="-0.2045" y="1" relative="1" as="geometry">
            <mxPoint as="offset" />
          </mxGeometry>
        </mxCell>
        <mxCell id="R0hRucNRT6cpFYBGlfZp-33" value="From&lt;br&gt;Plan Actions" style="rounded=0;whiteSpace=wrap;html=1;" parent="1" vertex="1">
          <mxGeometry x="148.5" y="40" width="73" height="40" as="geometry" />
        </mxCell>
        <mxCell id="R0hRucNRT6cpFYBGlfZp-34" value="" style="endArrow=classic;html=1;rounded=0;exitX=0.5;exitY=1;exitDx=0;exitDy=0;entryX=0.5;entryY=0;entryDx=0;entryDy=0;" parent="1" source="R0hRucNRT6cpFYBGlfZp-33" target="R0hRucNRT6cpFYBGlfZp-2" edge="1">
          <mxGeometry width="50" height="50" relative="1" as="geometry">
            <mxPoint x="280" y="230" as="sourcePoint" />
            <mxPoint x="330" y="180" as="targetPoint" />
          </mxGeometry>
        </mxCell>
      </root>
    </mxGraphModel>
  </diagram>
</mxfile>
